<?xml version="1.0" encoding="UTF-8" standalone="no"?>
<!-- Created with Inkscape (http://www.inkscape.org/) -->

<svg
   width="210mm"
   height="297mm"
   viewBox="0 0 210 297"
   version="1.1"
   id="svg5"
   inkscape:version="1.2.2 (732a01da63, 2022-12-09)"
   sodipodi:docname="Логотип.svg"
   xmlns:inkscape="http://www.inkscape.org/namespaces/inkscape"
   xmlns:sodipodi="http://sodipodi.sourceforge.net/DTD/sodipodi-0.dtd"
   xmlns="http://www.w3.org/2000/svg"
   xmlns:svg="http://www.w3.org/2000/svg">
  <sodipodi:namedview
     id="namedview7"
     pagecolor="#ffffff"
     bordercolor="#000000"
     borderopacity="0.25"
     inkscape:showpageshadow="2"
     inkscape:pageopacity="0.0"
     inkscape:pagecheckerboard="0"
     inkscape:deskcolor="#d1d1d1"
     inkscape:document-units="mm"
     showgrid="false"
     inkscape:lockguides="false"
     inkscape:zoom="1.4994291"
     inkscape:cx="279.10622"
     inkscape:cy="181.40237"
     inkscape:window-width="1920"
     inkscape:window-height="1017"
     inkscape:window-x="-8"
     inkscape:window-y="-8"
     inkscape:window-maximized="1"
     inkscape:current-layer="layer1" />
  <defs
     id="defs2">
    <rect
       x="118.0188"
       y="128.74778"
       width="55.244401"
       height="-0.43224846"
       id="rect113" />
    <filter
       inkscape:label="Velvet Bumps"
       inkscape:menu="Bumps"
       inkscape:menu-tooltip="Gives Smooth Bumps velvet like"
       style="color-interpolation-filters:sRGB;"
       id="filter2404"
       x="-0.043322856"
       y="-0.16558313"
       width="1.0866457"
       height="1.3311663">
      <feGaussianBlur
         stdDeviation="1"
         result="result3"
         id="feGaussianBlur2394" />
      <feBlend
         in2="result3"
         result="result5"
         mode="screen"
         in="SourceGraphic"
         id="feBlend2396" />
      <feGaussianBlur
         stdDeviation="1"
         result="result7"
         id="feGaussianBlur2398" />
      <feConvolveMatrix
         order="3 3"
         kernelMatrix="2 0 0 1 1 -1 0 0 -2 "
         targetX="1"
         targetY="1"
         result="result8"
         id="feConvolveMatrix2400" />
      <feBlend
         mode="darken"
         in="result7"
         result="result6"
         in2="result8"
         id="feBlend2402" />
    </filter>
    <filter
       inkscape:label="Velvet Bumps"
       inkscape:menu="Bumps"
       inkscape:menu-tooltip="Gives Smooth Bumps velvet like"
       style="color-interpolation-filters:sRGB;"
       id="filter2488"
       x="-0.052206291"
       y="-0.066910016"
       width="1.1044126"
       height="1.13382">
      <feGaussianBlur
         stdDeviation="1"
         result="result3"
         id="feGaussianBlur2478" />
      <feBlend
         in2="result3"
         result="result5"
         mode="screen"
         in="SourceGraphic"
         id="feBlend2480" />
      <feGaussianBlur
         stdDeviation="1"
         result="result7"
         id="feGaussianBlur2482" />
      <feConvolveMatrix
         order="3 3"
         kernelMatrix="2 0 0 1 1 -1 0 0 -2 "
         targetX="1"
         targetY="1"
         result="result8"
         id="feConvolveMatrix2484" />
      <feBlend
         mode="darken"
         in="result7"
         result="result6"
         in2="result8"
         id="feBlend2486" />
    </filter>
  </defs>
  <g
     inkscape:label="Слой 1"
     inkscape:groupmode="layer"
     id="layer1">
    <g
       id="g11758"
       transform="translate(-22.502004,-0.27408935)">
      <g
         id="g6076"
         transform="translate(43.623376,21.704241)">
        <g
           id="g1199"
           transform="matrix(0.80875108,0,0,0.79493109,-19.906793,-12.999907)">
          <path
             style="font-size:48.2603px;font-family:ft40;-inkscape-font-specification:ft40;fill:#ff6600;stroke-width:0.754066"
             d="m 101.09822,58.194381 c -1.250013,0.05785 -6.761906,0.186398 -30.873566,0.204122 v 8.313704 h 22.643062 c 0.566085,0 1.132521,-0.0167 1.698605,-0.04961 0.597532,-0.03292 1.179029,-0.131533 1.745113,-0.296106 0.597532,-0.164573 1.163973,-0.428073 1.698604,-0.790133 0.534638,-0.362061 1.037735,-0.871849 1.509469,-1.530139 0.754783,-1.053265 1.210633,-2.205367 1.367873,-3.45612 0.10719,-0.852586 0.17678,-1.650236 0.21084,-2.395719 z"
             id="path2343" />
          <path
             style="font-size:48.2603px;font-family:ft40;-inkscape-font-specification:ft40;stroke-width:0.754066"
             d="m 69.899093,41.732853 c 0.0211,1.130006 0.113536,2.297592 0.278019,3.502629 0.220144,1.38241 0.723759,2.616436 1.509985,3.702616 0.34594,0.460804 0.817367,0.954932 1.414901,1.481563 0.597532,0.493719 1.384108,0.872016 2.359029,1.135332 l 12.783716,3.752225 c 0.106007,0.03263 0.208791,0.0676 0.311092,0.102837 l 12.547555,2.673738 c 0.0127,-0.308996 0.0196,-0.609848 0.0196,-0.900203 0,-0.592463 -0.0312,-1.234259 -0.094,-1.925464 -0.0315,-0.691204 -0.12594,-1.38257 -0.28319,-2.073775 C 100.62,52.46023 100.39985,51.768867 100.08536,51.110575 99.77087,50.41937 99.362265,49.810446 98.859082,49.283813 98.261547,48.658438 97.522217,48.148132 96.641646,47.753158 96.049511,47.477723 95.48899,47.25146 94.958028,47.072062 Z"
             id="path2330" />
          <path
             style="font-size:48.2603px;font-family:ft40;-inkscape-font-specification:ft40;stroke-width:0.754066"
             d="m 77.63092,32.152043 c -1.415208,0 -2.57872,0.230109 -3.490743,0.690914 -0.912023,0.427888 -1.635775,0.9215 -2.17041,1.481046 -0.974921,1.020351 -1.572511,2.156275 -1.792655,3.407027 -0.125815,0.833958 -0.208188,1.630276 -0.250114,2.391069 5.072448,-0.04944 13.816865,-0.09296 29.497941,-0.09405 v -7.876005 z"
             id="path2327" />
          <path
             style="font-size:48.2603px;font-family:ft40;-inkscape-font-specification:ft40;stroke-width:0.754066"
             d="m 106.43588,52.150822 -5.78414,14.561385 h 11.22722 l 2.59467,-7.109644 h 11.88765 l 2.59467,7.109644 h 11.22722 l -5.73505,-14.438395 c -15.97152,-0.01 -24.00393,-0.06732 -28.01224,-0.12299 z"
             id="path2324" />
          <path
             style="font-size:48.2603px;font-family:ft40;-inkscape-font-specification:ft40;stroke-width:0.754066"
             d="m 120.41746,31.756718 c -1.28942,0 -2.35895,0.09914 -3.20808,0.296623 -0.81768,0.197487 -1.50924,0.477165 -2.07532,0.839225 -0.5661,0.36206 -1.02246,0.806102 -1.36839,1.332735 -0.34594,0.526634 -0.64447,1.102683 -0.89607,1.72806 l -6.00997,15.130343 11.18226,-2.382284 1.95079,-5.737117 c 0.0629,-0.131659 0.12575,-0.279845 0.18861,-0.444418 0.0944,-0.197487 0.1733,-0.296106 0.23617,-0.296106 0.0629,0 0.12575,0.09862 0.18862,0.296106 0.0944,0.164573 0.17277,0.312759 0.23564,0.444418 l 1.62987,4.792989 9.38806,-1.999878 -3.89433,-9.804053 c -0.37739,-0.954523 -0.84934,-1.711631 -1.41542,-2.271179 -0.53463,-0.559548 -1.13222,-0.970716 -1.79266,-1.234033 -0.62898,-0.296234 -1.32055,-0.477293 -2.07532,-0.54312 -0.72334,-0.09874 -1.47824,-0.148311 -2.26446,-0.148311 z"
             id="path2321" />
          <path
             style="fill:#ff6600;stroke-width:0.82669"
             d="m 382.1907,249.05464 c 0.61635,-1.48553 5.45455,-13.67528 10.75157,-27.08833 l 9.63095,-24.38736 52.3006,0.26724 c 28.76533,0.14699 52.5524,0.519 52.86017,0.82669 0.30776,0.3077 5.22789,12.27778 10.93363,26.60019 l 10.37406,26.04074 -20.38446,0.22144 c -11.21146,0.1218 -20.63336,-0.0642 -20.93757,-0.41334 -0.30421,-0.34914 -2.56152,-6.30977 -5.01625,-13.24585 l -4.46314,-12.61105 -23.12829,0.2107 -23.12828,0.2107 -4.66347,12.8137 -4.66347,12.8137 -20.79333,0.2209 -20.79334,0.22091 z"
             id="path2318"
             transform="scale(0.26458333)" />
          <path
             style="fill:#b3b3b3;stroke-width:0.82669;filter:url(#filter2404)"
             d="m 265.02696,147.35752 c 1.75999,-12.22914 5.85702,-18.06693 16.0477,-22.86611 l 4.54679,-2.14127 44.84794,-0.23383 44.84794,-0.23382 v 14.49423 14.49423 h -55.39801 -55.39801 z"
             id="path2315"
             transform="scale(0.26458333)" />
          <path
             style="fill:#999999;stroke-width:0.82669;filter:url(#filter2488)"
             d="m 405.07818,191.83972 c 0,-0.20116 5.24229,-13.60938 11.64953,-29.79604 7.36964,-18.61801 12.61153,-30.69158 14.26803,-32.8634 5.02034,-6.58211 14.58949,-9.47724 28.23065,-8.54116 8.97088,0.6156 16.42597,3.7743 20.01562,8.48058 2.55723,3.3527 18.6044,42.5551 17.7459,43.35228 -0.4607,0.42778 -31.95794,7.33313 -33.4485,7.33313 -0.25112,0 -1.65414,-3.6271 -3.11784,-8.06023 -1.4637,-4.43312 -3.21461,-9.1541 -3.89092,-10.49106 -1.15587,-2.28496 -1.29617,-2.33988 -2.33799,-0.9151 -0.60959,0.83366 -2.65583,6.20566 -4.54721,11.93778 -1.89138,5.73211 -3.67151,10.67095 -3.95583,10.97519 -0.41189,0.44073 -38.62597,8.95377 -40.19248,8.95377 -0.23043,0 -0.41896,-0.16458 -0.41896,-0.36574 z"
             id="path2338"
             transform="scale(0.26458333)" />
          <path
             style="fill:#1a1a1a;stroke-width:0.82669"
             d="m 356.71681,213.6886 c -19.77201,-4.2967 -68.22141,-17.6853 -75.83627,-20.95673 -7.89862,-3.39333 -14.19598,-13.8982 -15.63686,-26.08444 -0.49362,-4.17476 -0.74332,-7.74464 -0.55491,-7.93306 0.64337,-0.64336 93.66881,19.46698 97.94946,21.17483 12.39529,4.94532 17.52209,13.41142 18.91663,31.23783 0.55081,7.04101 0.4879,7.52859 -0.96409,7.47232 -0.85433,-0.0331 -11.59762,-2.24294 -23.87396,-4.91075 z"
             id="path2309"
             transform="scale(0.26458333)" />
        </g>
        <g
           aria-label="
system adminestrator"
           transform="matrix(0.69905888,0,0,0.91966698,-19.997909,-12.999907)"
           id="text1255"
           style="font-size:7.97798px;font-family:Arial;-inkscape-font-specification:Arial;fill:#ff6600;stroke-width:0.427391">
          <path
             d="m 84.009765,63.316627 q -0.214253,0 -0.299954,-0.144134 -0.05843,-0.101283 -0.101283,-0.420713 -0.292162,0.07401 -0.89986,0.272684 -0.627175,0.249312 -0.631071,0.615489 0.116865,0.04285 0.229835,0.06233 0.895964,0.159716 1.33226,0.440191 0.634966,0.409028 0.634966,1.184232 0,0.634966 -0.549265,0.958292 -0.455773,0.264894 -1.153067,0.264894 -0.510311,0 -0.973875,-0.171402 -0.599907,-0.218148 -0.599907,-0.607697 0,-0.15582 0.120761,-0.272685 0.124656,-0.116865 0.280476,-0.116865 0.12076,0 0.31164,0.186984 0.09349,0.0896 0.420713,0.148029 0.260999,0.04675 0.440192,0.04675 0.327222,0 0.576533,-0.07791 0.362282,-0.11297 0.362282,-0.358386 0,-0.529788 -0.740145,-0.716772 l -0.405132,-0.0896 q -0.518101,-0.11297 -0.736249,-0.264894 -0.315535,-0.218148 -0.315535,-0.658339 0,-0.814159 0.767413,-1.160859 0.23373,-0.105178 0.747936,-0.249312 0.514205,-0.148029 0.736249,-0.249312 0.159715,-0.07012 0.346699,-0.07012 0.167506,0 0.272685,0.109074 0.109074,0.109074 0.109074,0.284372 0,0.112969 0.04675,0.331117 0.05064,0.218148 0.05064,0.331117 0,0.175298 -0.109074,0.284372 -0.105178,0.109074 -0.272684,0.109074 z"
             id="path2288" />
          <path
             d="m 88.660989,62.841376 -1.347842,2.913833 q -0.498624,1.063471 -0.763518,1.780242 l -0.257103,0.755727 q -0.101282,0.280476 -0.350594,0.280476 -0.163611,0 -0.284372,-0.109074 -0.116865,-0.105179 -0.116865,-0.264894 0,-0.38955 0.841428,-2.255493 l -1.394588,-2.683999 -0.175298,-0.284371 q -0.105178,-0.179193 -0.105178,-0.299953 0,-0.159716 0.12076,-0.280476 0.124656,-0.120761 0.276581,-0.120761 0.179192,0 0.27658,0.136343 0.662235,0.919337 1.421857,2.617774 l 0.576533,-1.343946 q 0.31164,-0.697295 0.599907,-1.199814 0.124656,-0.218148 0.327222,-0.218148 0.159715,0 0.280476,0.11297 0.124656,0.112969 0.124656,0.268789 0,0.0857 -0.05064,0.194775 z"
             style="font-family:'Comic Sans MS';-inkscape-font-specification:'Comic Sans MS, Normal'"
             id="path2285" />
          <path
             d="m 92.046177,63.316627 q -0.214253,0 -0.299954,-0.144134 -0.05843,-0.101283 -0.101283,-0.420713 -0.292162,0.07401 -0.89986,0.272684 -0.627175,0.249312 -0.63107,0.615489 0.116865,0.04285 0.229834,0.06233 0.895965,0.159716 1.33226,0.440191 0.634967,0.409028 0.634967,1.184232 0,0.634966 -0.549266,0.958292 -0.455773,0.264894 -1.153067,0.264894 -0.51031,0 -0.973875,-0.171402 -0.599906,-0.218148 -0.599906,-0.607697 0,-0.15582 0.12076,-0.272685 0.124656,-0.116865 0.280476,-0.116865 0.12076,0 0.31164,0.186984 0.09349,0.0896 0.420714,0.148029 0.260998,0.04675 0.440191,0.04675 0.327222,0 0.576534,-0.07791 0.362281,-0.11297 0.362281,-0.358386 0,-0.529788 -0.740145,-0.716772 l -0.405131,-0.0896 q -0.518102,-0.11297 -0.73625,-0.264894 -0.315535,-0.218148 -0.315535,-0.658339 0,-0.814159 0.767413,-1.160859 0.23373,-0.105178 0.747936,-0.249312 0.514206,-0.148029 0.736249,-0.249312 0.159715,-0.07012 0.346699,-0.07012 0.167507,0 0.272685,0.109074 0.109074,0.109074 0.109074,0.284372 0,0.112969 0.04675,0.331117 0.05064,0.218148 0.05064,0.331117 0,0.175298 -0.109074,0.284372 -0.105179,0.109074 -0.272685,0.109074 z"
             style="font-family:'Comic Sans MS';-inkscape-font-specification:'Comic Sans MS, Normal'"
             id="path2282" />
          <path
             d="m 95.906616,62.997196 q -0.08181,0 -0.194775,-0.0078 -0.109074,-0.0078 -0.19088,-0.0078 -0.0896,0 -0.529787,0.05843 l 0.07401,2.30224 0.0039,0.171402 0.0039,0.19867 q 0.01558,0.853114 -0.409027,0.853114 -0.15582,0 -0.272685,-0.101283 -0.11297,-0.101283 -0.11297,-0.253207 0,-0.148029 0.01169,-0.444087 0.01169,-0.296058 0.01169,-0.444087 l -0.07791,-2.274971 q -0.284372,-0.01169 -0.864801,-0.06622 -0.346699,-0.04675 -0.346699,-0.385654 0,-0.171402 0.105178,-0.284372 0.105179,-0.112969 0.268789,-0.112969 l 0.818055,0.06622 q 0,-0.19867 -0.01948,-0.529787 -0.01558,-0.335013 -0.01558,-0.483042 0,-0.163611 0.112969,-0.26879 0.112969,-0.109074 0.27658,-0.109074 0.350595,0 0.409028,0.572639 0.01169,0.144133 0.01169,0.346699 l -0.0078,0.225939 -0.0039,0.241521 q 0.483041,-0.06233 0.55316,-0.06233 0.405132,0 0.529788,0.03896 0.237626,0.07791 0.237626,0.366177 0,0.171402 -0.109074,0.284371 -0.105179,0.109074 -0.272685,0.109074 z"
             style="font-family:'Comic Sans MS';-inkscape-font-specification:'Comic Sans MS, Normal'"
             id="path2279" />
          <path
             d="m 98.878881,66.495353 q -0.880382,0 -1.425752,-0.440191 -0.596011,-0.486937 -0.596011,-1.363424 0,-1.01283 0.490833,-1.698438 0.533683,-0.747935 1.425752,-0.747935 0.646653,0 1.05568,0.218148 0.502517,0.268789 0.502517,0.825845 0,0.38955 -0.440189,0.708981 -0.194775,0.140238 -0.825846,0.436296 l -1.48808,0.705085 q 0.218148,0.323326 0.541474,0.486937 0.327222,0.163611 0.759622,0.163611 0.26879,0 0.631071,-0.101283 0.459669,-0.128551 0.592118,-0.335013 0.13244,-0.210357 0.28437,-0.210357 0.13634,0 0.24152,0.105179 0.10907,0.101283 0.10907,0.237625 0,0.432401 -0.69729,0.74404 -0.596011,0.264894 -1.160859,0.264894 z m -0.105178,-3.548799 q -0.475251,0 -0.790786,0.370073 -0.315536,0.366177 -0.471356,1.106321 l 1.195918,-0.568742 q 0.705086,-0.342804 1.005039,-0.596012 -0.335013,-0.31164 -0.938815,-0.31164 z"
             style="font-family:'Comic Sans MS';-inkscape-font-specification:'Comic Sans MS, Normal'"
             id="path2276" />
          <path
             d="m 106.37771,66.639487 q -0.31943,0 -0.37396,-0.338909 -0.0701,-0.428504 -0.14024,-1.207604 l -0.13245,-1.207605 q -0.0389,-0.268789 -0.13244,-0.525892 -0.13245,-0.350595 -0.28827,-0.350595 -0.14414,0 -0.53758,0.245417 -0.37397,0.225939 -0.49083,0.362281 -0.004,0.366177 0.0195,0.732354 l 0.11687,1.040098 q 0.074,0.615488 0.074,1.016725 0,0.171402 -0.10907,0.280476 -0.10518,0.112969 -0.27269,0.112969 -0.1675,0 -0.27658,-0.112969 -0.10517,-0.109074 -0.10517,-0.280476 0,-0.471355 -0.0974,-1.390693 -0.0935,-0.923233 -0.0935,-1.394588 0,-0.412923 -0.11687,-0.642758 -0.27268,0.124656 -0.55316,0.405132 l -0.45967,0.514206 q -0.0623,0.09349 -0.19867,0.245416 0,0.23373 -0.0429,0.689504 -0.0429,0.455773 -0.0429,0.673921 0,0.116865 0.0351,0.327222 0.039,0.210356 0.039,0.303848 0,0.159716 -0.12077,0.26879 -0.11686,0.109074 -0.27658,0.109074 -0.44019,0 -0.44019,-1.001143 0,-0.23373 0.0429,-0.697294 0.0429,-0.463565 0.0429,-0.697295 0,-0.206461 -0.0389,-0.619384 -0.0351,-0.412923 -0.0351,-0.62328 0,-0.884278 0.39734,-0.884278 0.15192,0 0.27658,0.132447 0.12855,0.132447 0.12855,0.288267 0,0.07401 -0.0195,0.229835 -0.0195,0.15582 -0.0195,0.237625 l 0.008,0.409027 q 0.20256,-0.416818 0.59601,-0.751831 0.39344,-0.338908 0.67003,-0.338908 0.61159,0 0.84142,0.607698 0.21426,-0.284372 0.51031,-0.42461 0.29606,-0.144133 0.67782,-0.144133 0.65055,0 0.88817,0.701189 0.0467,0.140238 0.15972,1.094635 0.10907,0.670026 0.28047,2.232121 0.0117,0.15582 -0.10517,0.264894 -0.11687,0.109074 -0.28438,0.109074 z"
             style="font-family:'Comic Sans MS';-inkscape-font-specification:'Comic Sans MS, Normal'"
             id="path2273" />
          <path
             d="m 113.0546,66.573263 q -0.074,0 -0.26879,-0.171402 -0.1753,-0.159715 -0.261,-0.284371 -0.37397,0.202566 -0.65834,0.303849 -0.28437,0.105178 -0.47525,0.105178 -0.91154,0 -1.32836,-0.514206 -0.39345,-0.483041 -0.39345,-1.480289 0,-0.94271 0.64665,-1.612736 0.65055,-0.670026 1.55041,-0.670026 0.33891,0 0.75962,0.175298 0.52979,0.218148 0.52979,0.525892 0,0.105178 -0.0779,0.186984 -0.0389,0.148029 -0.0623,0.486937 -0.0195,0.338908 -0.0234,0.868696 -0.004,0.483042 0.0662,0.763518 0.0389,0.171402 0.24541,0.685608 0.0273,0.07012 0.0896,0.206461 l 0.0234,0.06622 q 0,0.15582 -0.10907,0.257103 -0.10908,0.101283 -0.25321,0.101283 z m -0.81026,-2.707371 q 0,-0.167506 0.0195,-0.362281 0.0234,-0.198671 0.0662,-0.420714 -0.14414,-0.07402 -0.24931,-0.109074 -0.10129,-0.03506 -0.16362,-0.03506 -0.6038,0 -1.04399,0.494729 -0.4363,0.490832 -0.4363,1.13359 0,0.638861 0.22594,0.958292 0.22594,0.319431 0.67782,0.319431 0.37397,0 0.63497,-0.136342 0.14023,-0.07401 0.39344,-0.296058 -0.12465,-1.032307 -0.12465,-1.546513 z"
             style="font-family:'Comic Sans MS';-inkscape-font-specification:'Comic Sans MS, Normal'"
             id="path2270" />
          <path
             d="m 117.68245,62.876435 q -0.0468,0.572639 -0.0468,1.145277 0,1.297201 0.12077,1.959435 0.008,0.05454 0.008,0.0896 0,0.15582 -0.10908,0.257103 -0.10907,0.101283 -0.25321,0.101283 -0.24152,0 -0.35449,-0.350595 -0.28047,0.206461 -0.58432,0.31164 -0.29995,0.105178 -0.62718,0.105178 -0.80636,0 -1.33615,-0.537579 -0.54537,-0.549265 -0.54537,-1.41017 0,-1.040098 0.54926,-1.667273 0.55316,-0.627175 1.43355,-0.627175 0.45188,0 0.69729,0.140238 l 0.36618,0.268789 q 0.0545,-1.640005 0.12855,-2.208747 0.0506,-0.3467 0.35449,-0.3467 0.35449,0 0.35449,0.377864 0,0.541474 -0.15582,2.391835 z m -1.7296,0.101283 q -0.65444,0 -0.98167,0.38955 -0.32722,0.385655 -0.32722,1.164754 0,0.502519 0.35449,0.864801 0.35839,0.362281 0.83753,0.362281 0.32723,0 0.55317,-0.12076 0.13244,-0.07012 0.4324,-0.323327 0.0584,-0.05064 0.11297,-0.12076 l -0.0117,-0.673921 0.004,-0.451878 0.008,-0.459669 q -0.14803,-0.315535 -0.39345,-0.471355 -0.24542,-0.159716 -0.58822,-0.159716 z"
             style="font-family:'Comic Sans MS';-inkscape-font-specification:'Comic Sans MS, Normal'"
             id="path2267" />
          <path
             d="m 123.72826,66.639487 q -0.31943,0 -0.37397,-0.338909 -0.0701,-0.428504 -0.14023,-1.207604 l -0.13245,-1.207605 q -0.039,-0.268789 -0.13245,-0.525892 -0.13244,-0.350595 -0.28826,-0.350595 -0.14414,0 -0.53758,0.245417 -0.37397,0.225939 -0.49084,0.362281 -0.004,0.366177 0.0195,0.732354 l 0.11687,1.040098 q 0.074,0.615488 0.074,1.016725 0,0.171402 -0.10907,0.280476 -0.10518,0.112969 -0.27269,0.112969 -0.1675,0 -0.27658,-0.112969 -0.10518,-0.109074 -0.10518,-0.280476 0,-0.471355 -0.0974,-1.390693 -0.0935,-0.923233 -0.0935,-1.394588 0,-0.412923 -0.11686,-0.642758 -0.27269,0.124656 -0.55316,0.405132 l -0.45967,0.514206 q -0.0623,0.09349 -0.19867,0.245416 0,0.23373 -0.0429,0.689504 -0.0429,0.455773 -0.0429,0.673921 0,0.116865 0.0351,0.327222 0.0389,0.210356 0.0389,0.303848 0,0.159716 -0.12076,0.26879 -0.11686,0.109074 -0.27658,0.109074 -0.44019,0 -0.44019,-1.001143 0,-0.23373 0.0429,-0.697294 0.0429,-0.463565 0.0429,-0.697295 0,-0.206461 -0.0389,-0.619384 -0.0351,-0.412923 -0.0351,-0.62328 0,-0.884278 0.39734,-0.884278 0.15192,0 0.27658,0.132447 0.12855,0.132447 0.12855,0.288267 0,0.07401 -0.0195,0.229835 -0.0195,0.15582 -0.0195,0.237625 l 0.008,0.409027 q 0.20256,-0.416818 0.59601,-0.751831 0.39344,-0.338908 0.67002,-0.338908 0.6116,0 0.84143,0.607698 0.21425,-0.284372 0.51031,-0.42461 0.29606,-0.144133 0.67782,-0.144133 0.65055,0 0.88817,0.701189 0.0467,0.140238 0.15972,1.094635 0.10907,0.670026 0.28047,2.232121 0.0117,0.15582 -0.10518,0.264894 -0.11686,0.109074 -0.28437,0.109074 z"
             style="font-family:'Comic Sans MS';-inkscape-font-specification:'Comic Sans MS, Normal'"
             id="path2264" />
          <path
             d="m 125.72276,61.38446 q -0.18699,0 -0.32333,-0.132447 -0.13634,-0.132447 -0.13634,-0.319431 0,-0.186984 0.13634,-0.319431 0.13634,-0.132447 0.32333,-0.132447 0.18698,0 0.31943,0.132447 0.13634,0.132447 0.13634,0.319431 0,0.186984 -0.13634,0.319431 -0.13245,0.132447 -0.31943,0.132447 z m 0.1753,3.163144 q 0,0.23373 0.0117,0.70119 0.0156,0.463564 0.0156,0.697294 0,0.171402 -0.10517,0.280476 -0.10518,0.109074 -0.27658,0.109074 -0.16751,0 -0.27658,-0.109074 -0.10518,-0.109074 -0.10518,-0.280476 0,-0.23373 -0.0156,-0.697294 -0.0117,-0.46746 -0.0117,-0.70119 0,-0.366177 0.0389,-0.911546 0.039,-0.549266 0.039,-0.915442 0,-0.175298 0.10518,-0.284372 0.10907,-0.109074 0.27658,-0.109074 0.1675,0 0.27268,0.109074 0.10908,0.109074 0.10908,0.284372 0,0.366176 -0.039,0.915442 -0.0389,0.545369 -0.0389,0.911546 z"
             style="font-family:'Comic Sans MS';-inkscape-font-specification:'Comic Sans MS, Normal'"
             id="path2261" />
          <path
             d="m 130.20258,66.592741 q -0.33501,0 -0.37786,-0.366177 l -0.10908,-0.853114 q -0.0545,-0.455774 -0.0545,-0.853114 0,-0.109074 0.0117,-0.370073 0.0156,-0.260998 0.0156,-0.370072 0,-0.841428 -0.31164,-0.841428 -0.4363,0 -0.83364,0.518102 -0.35839,0.471355 -0.56095,1.192022 -0.008,0.151925 -0.0351,0.381759 -0.0234,0.194775 -0.0234,0.377863 0,0.116865 0.0234,0.350595 0.0234,0.23373 0.0234,0.350595 0,0.175297 -0.10907,0.284371 -0.10518,0.109074 -0.27269,0.109074 -0.1714,0 -0.27658,-0.109074 -0.10518,-0.109074 -0.10518,-0.284371 0,-0.116865 -0.0273,-0.350595 -0.0234,-0.23373 -0.0234,-0.350595 0,-0.401236 0.0545,-1.110217 0.0584,-0.712876 0.0584,-1.114112 0,-0.124656 -0.0156,-0.370072 -0.0117,-0.245417 -0.0117,-0.370073 0,-0.167506 0.10908,-0.272685 0.11297,-0.109074 0.27658,-0.109074 0.35838,0 0.39344,0.506415 l 0.0117,0.455773 q 0.65444,-0.872591 1.34395,-0.872591 0.62328,0 0.86869,0.549265 0.16751,0.366177 0.18309,1.082949 v 0.393445 l -0.004,0.362281 q 0,0.323327 0.0818,0.837532 0.0857,0.510311 0.0857,0.829741 0,0.171402 -0.11297,0.276581 -0.10907,0.109074 -0.27658,0.109074 z"
             style="font-family:'Comic Sans MS';-inkscape-font-specification:'Comic Sans MS, Normal'"
             id="path2258" />
          <path
             d="m 133.20991,66.495353 q -0.88039,0 -1.42575,-0.440191 -0.59602,-0.486937 -0.59602,-1.363424 0,-1.01283 0.49084,-1.698438 0.53368,-0.747935 1.42575,-0.747935 0.64665,0 1.05568,0.218148 0.50252,0.268789 0.50252,0.825845 0,0.38955 -0.44019,0.708981 -0.19478,0.140238 -0.82585,0.436296 l -1.48808,0.705085 q 0.21815,0.323326 0.54148,0.486937 0.32722,0.163611 0.75962,0.163611 0.26879,0 0.63107,-0.101283 0.45967,-0.128551 0.59211,-0.335013 0.13245,-0.210357 0.28438,-0.210357 0.13634,0 0.24152,0.105179 0.10907,0.101283 0.10907,0.237625 0,0.432401 -0.69729,0.74404 -0.59602,0.264894 -1.16086,0.264894 z m -0.10518,-3.548799 q -0.47525,0 -0.79079,0.370073 -0.31553,0.366177 -0.47135,1.106321 l 1.19592,-0.568742 q 0.70508,-0.342804 1.00503,-0.596012 -0.33501,-0.31164 -0.93881,-0.31164 z"
             style="font-family:'Comic Sans MS';-inkscape-font-specification:'Comic Sans MS, Normal'"
             id="path2255" />
          <path
             d="m 138.39092,63.316627 q -0.21425,0 -0.29996,-0.144134 -0.0584,-0.101283 -0.10128,-0.420713 -0.29216,0.07401 -0.89986,0.272684 -0.62717,0.249312 -0.63107,0.615489 0.11687,0.04285 0.22983,0.06233 0.89597,0.159716 1.33227,0.440191 0.63496,0.409028 0.63496,1.184232 0,0.634966 -0.54926,0.958292 -0.45578,0.264894 -1.15307,0.264894 -0.51031,0 -0.97388,-0.171402 -0.5999,-0.218148 -0.5999,-0.607697 0,-0.15582 0.12076,-0.272685 0.12465,-0.116865 0.28047,-0.116865 0.12076,0 0.31164,0.186984 0.0935,0.0896 0.42072,0.148029 0.261,0.04675 0.44019,0.04675 0.32722,0 0.57653,-0.07791 0.36228,-0.11297 0.36228,-0.358386 0,-0.529788 -0.74014,-0.716772 l -0.40513,-0.0896 q -0.5181,-0.11297 -0.73625,-0.264894 -0.31554,-0.218148 -0.31554,-0.658339 0,-0.814159 0.76742,-1.160859 0.23373,-0.105178 0.74793,-0.249312 0.51421,-0.148029 0.73625,-0.249312 0.15972,-0.07012 0.3467,-0.07012 0.16751,0 0.27269,0.109074 0.10907,0.109074 0.10907,0.284372 0,0.112969 0.0467,0.331117 0.0507,0.218148 0.0507,0.331117 0,0.175298 -0.10908,0.284372 -0.10518,0.109074 -0.27268,0.109074 z"
             style="font-family:'Comic Sans MS';-inkscape-font-specification:'Comic Sans MS, Normal'"
             id="path2252" />
          <path
             d="m 142.25136,62.997196 q -0.0818,0 -0.19478,-0.0078 -0.10907,-0.0078 -0.19088,-0.0078 -0.0896,0 -0.52979,0.05843 l 0.074,2.30224 0.004,0.171402 0.004,0.19867 q 0.0156,0.853114 -0.40903,0.853114 -0.15582,0 -0.27268,-0.101283 -0.11297,-0.101283 -0.11297,-0.253207 0,-0.148029 0.0117,-0.444087 0.0117,-0.296058 0.0117,-0.444087 l -0.0779,-2.274971 q -0.28437,-0.01169 -0.8648,-0.06622 -0.3467,-0.04675 -0.3467,-0.385654 0,-0.171402 0.10518,-0.284372 0.10518,-0.112969 0.26879,-0.112969 l 0.81805,0.06622 q 0,-0.19867 -0.0195,-0.529787 -0.0156,-0.335013 -0.0156,-0.483042 0,-0.163611 0.11297,-0.26879 0.11297,-0.109074 0.27658,-0.109074 0.3506,0 0.40903,0.572639 0.0117,0.144133 0.0117,0.346699 l -0.008,0.225939 -0.004,0.241521 q 0.48304,-0.06233 0.55316,-0.06233 0.40513,0 0.52979,0.03896 0.23763,0.07791 0.23763,0.366177 0,0.171402 -0.10908,0.284371 -0.10518,0.109074 -0.27268,0.109074 z"
             style="font-family:'Comic Sans MS';-inkscape-font-specification:'Comic Sans MS, Normal'"
             id="path2249" />
          <path
             d="m 146.43512,63.437387 q -0.0273,0.486937 -0.38955,0.486937 -0.33501,0 -0.33501,-0.385654 0,-0.07401 -0.0117,-0.272685 l -0.0117,-0.327222 q -0.61549,0.07401 -0.98557,0.3467 -0.34669,0.253207 -0.57653,0.763517 l 0.008,2.134733 q 0,0.393446 -0.38565,0.393446 -0.34281,0 -0.34281,-0.393446 v -2.734639 q 0,-0.128552 0.008,-0.385655 0.0117,-0.257102 0.0117,-0.385654 0,-0.393445 0.3428,-0.393445 0.38176,0 0.38566,0.646652 0.74793,-0.720667 1.65948,-0.720667 0.31554,0 0.47136,0.237626 0.15582,0.237625 0.15582,0.716771 0,0.202566 -0.004,0.272685 z"
             style="font-family:'Comic Sans MS';-inkscape-font-specification:'Comic Sans MS, Normal'"
             id="path2246" />
          <path
             d="m 150.27998,66.573263 q -0.074,0 -0.26879,-0.171402 -0.1753,-0.159715 -0.261,-0.284371 -0.37397,0.202566 -0.65834,0.303849 -0.28437,0.105178 -0.47525,0.105178 -0.91154,0 -1.32836,-0.514206 -0.39345,-0.483041 -0.39345,-1.480289 0,-0.94271 0.64665,-1.612736 0.65055,-0.670026 1.55041,-0.670026 0.33891,0 0.75962,0.175298 0.52979,0.218148 0.52979,0.525892 0,0.105178 -0.0779,0.186984 -0.0389,0.148029 -0.0623,0.486937 -0.0195,0.338908 -0.0234,0.868696 -0.004,0.483042 0.0662,0.763518 0.039,0.171402 0.24542,0.685608 0.0273,0.07012 0.0896,0.206461 l 0.0234,0.06622 q 0,0.15582 -0.10907,0.257103 -0.10908,0.101283 -0.25321,0.101283 z m -0.81026,-2.707371 q 0,-0.167506 0.0195,-0.362281 0.0234,-0.198671 0.0662,-0.420714 -0.14414,-0.07402 -0.24932,-0.109074 -0.10128,-0.03506 -0.16361,-0.03506 -0.6038,0 -1.04399,0.494729 -0.4363,0.490832 -0.4363,1.13359 0,0.638861 0.22594,0.958292 0.22594,0.319431 0.67782,0.319431 0.37397,0 0.63497,-0.136342 0.14023,-0.07401 0.39344,-0.296058 -0.12465,-1.032307 -0.12465,-1.546513 z"
             style="font-family:'Comic Sans MS';-inkscape-font-specification:'Comic Sans MS, Normal'"
             id="path2243" />
          <path
             d="m 153.92617,62.997196 q -0.0818,0 -0.19478,-0.0078 -0.10907,-0.0078 -0.19088,-0.0078 -0.0896,0 -0.52979,0.05843 l 0.074,2.30224 0.004,0.171402 0.004,0.19867 q 0.0156,0.853114 -0.40903,0.853114 -0.15582,0 -0.27268,-0.101283 -0.11297,-0.101283 -0.11297,-0.253207 0,-0.148029 0.0117,-0.444087 0.0117,-0.296058 0.0117,-0.444087 l -0.0779,-2.274971 q -0.28437,-0.01169 -0.8648,-0.06622 -0.3467,-0.04675 -0.3467,-0.385654 0,-0.171402 0.10518,-0.284372 0.10518,-0.112969 0.26879,-0.112969 l 0.81805,0.06622 q 0,-0.19867 -0.0195,-0.529787 -0.0156,-0.335013 -0.0156,-0.483042 0,-0.163611 0.11297,-0.26879 0.11297,-0.109074 0.27658,-0.109074 0.3506,0 0.40903,0.572639 0.0117,0.144133 0.0117,0.346699 l -0.008,0.225939 -0.004,0.241521 q 0.48304,-0.06233 0.55316,-0.06233 0.40513,0 0.52979,0.03896 0.23762,0.07791 0.23762,0.366177 0,0.171402 -0.10907,0.284371 -0.10518,0.109074 -0.27268,0.109074 z"
             style="font-family:'Comic Sans MS';-inkscape-font-specification:'Comic Sans MS, Normal'"
             id="path2240" />
          <path
             d="m 156.54004,66.545995 q -0.65444,0 -1.1258,-0.483042 -0.52589,-0.537579 -0.55316,-1.44523 -0.0234,-0.880382 0.44409,-1.550408 0.54537,-0.790786 1.51925,-0.790786 0.77909,0 1.18033,0.712876 0.31943,0.576534 0.30775,1.386797 -0.0117,0.864801 -0.45188,1.476394 -0.49863,0.693399 -1.32058,0.693399 z m 0.23373,-3.47868 q -0.57263,-0.0039 -0.89207,0.54537 -0.2532,0.440191 -0.2532,1.005038 0,0.564847 0.30774,0.880383 0.2571,0.260998 0.6038,0.260998 0.40514,0 0.6973,-0.296058 0.33112,-0.327222 0.35059,-0.884278 0.0545,-1.507558 -0.81416,-1.511453 z"
             style="font-family:'Comic Sans MS';-inkscape-font-specification:'Comic Sans MS, Normal'"
             id="path2237" />
          <path
             d="m 162.30538,63.437387 q -0.0273,0.486937 -0.38955,0.486937 -0.33501,0 -0.33501,-0.385654 0,-0.07401 -0.0117,-0.272685 l -0.0117,-0.327222 q -0.61548,0.07401 -0.98556,0.3467 -0.3467,0.253207 -0.57653,0.763517 l 0.008,2.134733 q 0,0.393446 -0.38565,0.393446 -0.34281,0 -0.34281,-0.393446 v -2.734639 q 0,-0.128552 0.008,-0.385655 0.0117,-0.257102 0.0117,-0.385654 0,-0.393445 0.3428,-0.393445 0.38176,0 0.38566,0.646652 0.74793,-0.720667 1.65948,-0.720667 0.31554,0 0.47136,0.237626 0.15581,0.237625 0.15581,0.716771 0,0.202566 -0.004,0.272685 z"
             style="font-family:'Comic Sans MS';-inkscape-font-specification:'Comic Sans MS, Normal'"
             id="path2234" />
        </g>
        <ellipse
           style="fill:#ff6600;fill-opacity:0.475884;stroke-width:0.264583"
           id="path6043"
           cx="70.055275"
           cy="38.036148"
           rx="0.21489348"
           ry="1.0744673" />
      </g>
      <path
         id="circle6813"
         style="fill:#ff6600;fill-opacity:1;stroke-width:0.392313"
         d="M 107.55416,11.818917 A 41.581886,41.581886 0 0 0 65.972201,53.400875 41.581886,41.581886 0 0 0 107.55416,94.982833 41.581886,41.581886 0 0 0 149.13612,53.400875 41.581886,41.581886 0 0 0 107.55416,11.818917 Z m 0,8.595858 a 35.135082,32.986149 0 0 1 35.13532,32.9861 35.135082,32.986149 0 0 1 -35.13532,32.9861 35.135082,32.986149 0 0 1 -35.135325,-32.9861 35.135082,32.986149 0 0 1 35.135325,-32.9861 z" />
    </g>
  </g>
</svg>
